<svg xmlns="http://www.w3.org/2000/svg" enable-background="new 0 0 50 50" viewBox="0 0 50 50" id="thumbs-up"><path fill="#010101" d="M44.78024,20.36865H33.49118c4.43383-6.10907,3.122-12.19183,3.3457-14.39404
		c0.00293-0.03369,0.00488-0.06738,0.00488-0.10107C36.84177,3.18604,34.70798,1,32.08591,1
		c-3.30762,0-4.375,2.76855-5.50586,5.69922c-1.33008,3.44824-2.98535,7.73975-8.58203,10.44922l-3.74512,1.8147v-0.24731
		c0-1.10303-0.89746-2-2-2H5.99997c-2.75684,0-5,2.24316-5,5v21.45264c0,2.75684,2.24316,5,5,5h6.25293c1.10254,0,2-0.89697,2-2
		v-0.06689c1.65015,0.40405,3.08301,0.78772,4.36719,1.1333C22.42673,48.25977,25.17673,49,29.19137,49h10.56738
		c2.32813,0,4.22266-1.94189,4.22266-4.3291c0-0.99658-0.34351-1.90405-0.89771-2.63647
		c1.56714-0.63281,2.68286-2.19202,2.68286-4.02124c0-0.99683-0.34351-1.90454-0.89746-2.63696
		c1.56689-0.63306,2.68262-2.19189,2.68262-4.02075c0-1.05005-0.3811-2.0011-0.98975-2.75146
		c1.43555-0.69141,2.43799-2.177,2.43799-3.9082C48.99997,22.30957,47.10739,20.36865,44.78024,20.36865z M5.99997,46.16846
		c-1.6543,0-3-1.3457-3-3V21.71582c0-1.6543,1.3457-3,3-3h6.25293v1.84277v0.00049v24.27295
		c0,0.00195,0.00098,0.00354,0.00098,0.00537v1.33105H5.99997z M44.78024,27.02295
		c-0.10269,0.00006-6.03042,0.00348-5.92773,0.00342c-0.55273,0-1,0.44775-1,1s0.44727,1,1,1h4.47754
		c1.22461,0,2.22168,1.04492,2.22168,2.3291s-0.99707,2.32861-2.22168,2.32861c-0.6705,0-6.50471,0-6.2627,0
		c-0.55273,0-1,0.44775-1,1s0.44727,1,1,1c0.31553,0,4.62579,0,4.47754,0c1.22461,0,2.22168,1.04492,2.22168,2.3291
		s-0.99707,2.3291-2.22168,2.3291c-0.6705,0-6.50471,0-6.2627,0c-0.55273,0-1,0.44775-1,1c0,1.66314,2.50267,0.75686,5.47656,1
		c1.22559,0,2.22266,1.04443,2.22266,2.32861S40.98434,47,39.75876,47H29.19137c-3.75,0-6.25684-0.6748-10.05176-1.69629
		c-1.41895-0.38232-3.00586-0.80908-4.88672-1.26221V21.18555l4.61719-2.2373c6.30664-3.05322,8.19629-7.95215,9.57617-11.5293
		C29.59762,4.43457,30.23337,3,32.08591,3c1.50488,0,2.73242,1.26514,2.75586,2.8291
		c-0.23589,2.54945,1.0251,7.9301-3.02051,13.44043l-1.10449,1.5083c-0.46109,0.62898,0.0098,1.59082,0.80664,1.59082h13.25684
		c1.22363,0,2.21973,1.04395,2.21973,2.32715S46.00388,27.02295,44.78024,27.02295z"></path></svg>